# Blender v3.0.0 OBJ File: ''
# www.blender.org
mtllib staircase_outer.mtl
o cube.002
v 1.000000 0.500000 0.000000
v 0.500000 0.500000 0.000000
v 0.500000 1.000000 0.000000
v 1.000000 1.000000 0.000000
v 1.000000 0.500000 0.500000
v 1.000000 1.000000 0.500000
v 0.500000 0.500000 0.500000
v 0.500000 1.000000 0.500000
v 1.000000 0.000000 0.000000
v 0.000000 0.000000 0.000000
v 0.000000 0.500000 0.000000
v 1.000000 0.500000 0.000000
v 1.000000 -0.000000 1.000000
v 1.000000 0.500000 1.000000
v 0.000000 -0.000000 1.000000
v 0.000000 0.500000 1.000000
vt 0.000000 0.984375
vt 0.015625 0.984375
vt 0.015625 1.000000
vt 0.000000 1.000000
vt 0.000000 0.984375
vt 0.015625 0.984375
vt 0.015625 1.000000
vt 0.000000 1.000000
vt 0.015625 0.984375
vt 0.031250 0.984375
vt 0.031250 1.000000
vt 0.015625 1.000000
vt 0.000000 0.984375
vt 0.000000 1.000000
vt 0.015625 0.968750
vt 0.031250 0.968750
vt 0.031250 1.000000
vt 0.000000 0.968750
vt 0.031250 0.968750
vt 0.031250 0.984375
vt 0.000000 0.984375
vt 0.000000 0.968750
vt 0.031250 0.968750
vt 0.031250 0.984375
vt 0.000000 0.984375
vt 0.000000 0.968750
vt 0.031250 0.968750
vt 0.031250 0.984375
vt 0.000000 0.984375
vt 0.000000 0.968750
vt 0.031250 0.968750
vt 0.031250 0.984375
vt 0.000000 0.984375
vt 0.000000 0.968750
vt 0.031250 0.968750
vt 0.031250 1.000000
vt 0.000000 1.000000
vt 0.000000 0.984375
vt 0.015625 0.984375
vt 0.015625 1.000000
vt 0.000000 1.000000
vn 0.0000 0.0000 -1.0000
vn 1.0000 0.0000 0.0000
vn 0.0000 -0.0000 1.0000
vn -1.0000 0.0000 0.0000
vn 0.0000 1.0000 0.0000
vn 0.0000 -1.0000 -0.0000
usemtl None
s 1
f 1/1/1 2/2/1 3/3/1 4/4/1
f 5/5/2 1/6/2 4/7/2 6/8/2
f 7/9/3 5/10/3 6/11/3 8/12/3
f 2/13/4 7/9/4 8/12/4 3/14/4
f 8/15/5 6/16/5 4/17/5 3/3/5
f 9/18/1 10/19/1 11/20/1 12/21/1
f 13/22/2 9/23/2 12/24/2 14/25/2
f 15/26/3 13/27/3 14/28/3 16/29/3
f 10/30/4 15/31/4 16/32/4 11/33/4
f 16/34/5 14/35/5 12/36/5 11/37/5
f 10/38/6 9/39/6 13/40/6 15/41/6
